<?xml version="1.0" encoding="UTF-8"?>
<!-- Generator: Adobe Illustrator 23.0.6, SVG Export Plug-In . SVG Version: 6.00 Build 0)  -->
<svg xmlns="http://www.w3.org/2000/svg" xmlns:xlink="http://www.w3.org/1999/xlink" id="Calque_1" x="0px" y="0px" viewBox="0 0 63 63" style="enable-background:new 0 0 63 63;" xml:space="preserve">
<style type="text/css">
	.st0{fill-rule:evenodd;clip-rule:evenodd;fill:#EE285B;}
	.st1{fill:none;stroke:#FFFFFF;stroke-width:2;}
</style>
<title>HOTLINE</title>
<desc>Created with Sketch.</desc>
<g id="Desktop">
	<g id="FICHE-PRODUIT" transform="translate(-1292.000000, -682.000000)">
		<g id="HOTLINE" transform="translate(1292.000000, 682.000000)">
			<circle id="Oval-Copy-3" class="st0" cx="31.5" cy="31.5" r="31.5"/>
			<path class="st1" d="M43.3,36.7c0.4,0.2,0.7,0.7,0.7,1.1c0,0.1,0,0.2,0,0.3l-1.2,5.1c-0.1,0.5-0.6,0.9-1.1,0.9h0     C29.2,44,19,33.9,19,21.3v0c0-0.5,0.4-1,0.9-1.1L25,19c0.1,0,0.2,0,0.3,0c0.4,0,0.9,0.3,1.1,0.7l2.3,5.5c0.1,0.1,0.1,0.3,0.1,0.5     c0,0.3-0.2,0.7-0.4,0.9l-3,2.4c1.5,3.2,5.4,7.1,8.7,8.7l2.4-3c0.2-0.2,0.6-0.4,0.9-0.4c0.1,0,0.3,0,0.5,0.1L43.3,36.7z"/>
		</g>
	</g>
</g>
</svg>