<?xml version="1.0" encoding="UTF-8"?>
<!-- Generator: Adobe Illustrator 24.1.0, SVG Export Plug-In . SVG Version: 6.00 Build 0)  -->
<svg xmlns="http://www.w3.org/2000/svg" xmlns:xlink="http://www.w3.org/1999/xlink" id="Calque_1" x="0px" y="0px" viewBox="0 0 568.4 81.5" style="enable-background:new 0 0 568.4 81.5;" xml:space="preserve">
<style type="text/css">
	.st0{fill:#d1d3de;}
	.st1{fill:#d1d3de;}
</style>
<desc>Created with Sketch.</desc>
<path class="st0" d="M359.6,56.9c3.8,0,7.1-1.3,9.6-3.8c2.5-2.6,3.8-5.9,3.8-9.8c0-3.9-1.3-7.1-3.8-9.7c-2.6-2.6-5.8-3.9-9.6-3.9  c-3.8,0-7.1,1.3-9.6,3.9c-2.5,2.5-3.8,5.8-3.8,9.7c0,3.9,1.3,7.1,3.8,9.8C352.5,55.7,355.7,56.9,359.6,56.9 M373,22.1h9.2v42.5H373  v-6.1c-3.5,4.8-8.4,7.2-14.9,7.2c-5.9,0-10.8-2.1-15-6.5c-4.2-4.3-6.2-9.7-6.2-15.9c0-6.3,2-11.6,6.2-15.9c4.2-4.3,9.1-6.5,15-6.5  c6.5,0,11.4,2.4,14.9,7.1V22.1z"/>
<path class="st0" d="M417.3,22.1h9.2v42.5h-9.2v-5.4c-2.8,4.3-7.1,6.5-13.2,6.5c-9.8,0-16.3-6.6-16.3-17.5V22.1h9.2v25.2  c0,6.4,3.7,9.9,9.5,9.9c6.5,0,10.8-4,10.8-12.2V22.1z"/>
<path class="st0" d="M456.6,30.9h-10.5v20.4c0,5.4,3.6,5.4,10.5,5v8.2c-14,1.7-19.7-2.1-19.7-13.3V30.9h-7.8v-8.8h7.8v-9.2l9.2-2.7  v11.9h10.5V30.9z"/>
<path class="st0" d="M479,56.8c3.7,0,6.9-1.3,9.4-3.8c2.6-2.5,3.8-5.8,3.8-9.6s-1.3-7.1-3.8-9.6c-2.5-2.5-5.7-3.8-9.4-3.8  c-3.7,0-6.9,1.3-9.4,3.8c-2.5,2.6-3.8,5.8-3.8,9.6s1.3,7.1,3.8,9.6C472.1,55.5,475.3,56.8,479,56.8 M463.1,59.2  c-4.3-4.3-6.5-9.6-6.5-15.9c0-6.3,2.2-11.6,6.5-15.9c4.3-4.3,9.7-6.5,15.9-6.5c6.3,0,11.6,2.1,15.9,6.5c4.3,4.3,6.5,9.6,6.5,15.9  c0,6.3-2.2,11.6-6.5,15.9c-4.3,4.3-9.6,6.5-15.9,6.5C472.8,65.7,467.5,63.6,463.1,59.2"/>
<path class="st0" d="M227.8,13.1c-3-3.1-3-7.8,0-10.8c3.1-3.1,7.8-3.1,10.8,0c3.1,3,3.1,7.7,0,10.8  C235.6,16.1,230.9,16.1,227.8,13.1"/>
<path class="st1" d="M22.4,38.2c5.9,1.3,13.6,4.3,13.5,13.6c0,4.6-1.7,8.1-5.1,10.5c-3.4,2.3-7.6,3.5-12.6,3.5  c-8.9,0-15-3.4-18.3-10.1l11-6.3c1.1,3.3,3.6,5,7.2,5c3.1,0,4.6-0.8,4.6-2.6c0-1.7-3.3-2.7-7.4-3.7C9.6,46.4,2,43.5,2,34.8  c0-4.4,1.6-7.8,4.8-10.3c3.2-2.5,7.2-3.7,11.9-3.7c7.1,0,13.1,3.2,16.6,9.1l-10.9,5.9c-1.4-2.5-3.2-3.7-5.7-3.7  c-2.4,0-3.6,0.8-3.6,2.4C15,36.2,18.4,37.1,22.4,38.2"/>
<path class="st1" d="M74.5,25.6c3.1,3.1,4.6,7.4,4.6,12.9v26.1H66.4V40.4c0-5-3.1-7.7-7.4-7.7c-4.8,0-7.9,3-7.9,8.8v23.2H38.3V5.3  h12.7v20.8c2.6-3.5,6.6-5.2,12.2-5.2C67.7,20.9,71.5,22.4,74.5,25.6"/>
<path class="st1" d="M104,53.4c2.8,0,5.1-0.9,7-2.8s2.8-4.2,2.8-7.2c0-3-0.9-5.4-2.8-7.2c-1.9-1.9-4.2-2.8-7-2.8s-5.1,0.9-7,2.8  c-1.9,1.9-2.8,4.2-2.8,7.2c0,3,0.9,5.4,2.8,7.2S101.2,53.4,104,53.4 M104,65.8c-6.3,0-11.6-2.1-16-6.5c-4.3-4.3-6.5-9.7-6.5-16  s2.2-11.6,6.5-15.9c4.3-4.3,9.7-6.5,16-6.5c6.3,0,11.6,2.2,16,6.5c4.3,4.3,6.5,9.6,6.5,15.9s-2.2,11.6-6.5,16  C115.6,63.6,110.3,65.8,104,65.8"/>
<path class="st1" d="M152.3,53.7c3,0,5.4-0.9,7.2-2.8c2-1.9,2.9-4.4,2.9-7.6s-0.9-5.7-2.9-7.6c-1.9-1.9-4.2-2.8-7.2-2.8  c-3,0-5.4,0.9-7.3,2.8c-1.9,1.9-2.8,4.4-2.8,7.6s0.9,5.7,2.8,7.6C147,52.8,149.4,53.7,152.3,53.7 M169.2,27.5  c4,4.3,5.9,9.6,5.9,15.9c0,6.3-2,11.6-5.9,16c-4,4.3-8.8,6.5-14.4,6.5c-5.4,0-9.7-1.7-12.7-5.2l0.4,20.9h-12.7l-0.4-59.4h12.7v4  c3-3.5,7.2-5.2,12.7-5.2C160.5,20.9,165.3,23.1,169.2,27.5"/>
<path class="st1" d="M201,53.7c3,0,5.4-0.9,7.2-2.8c2-1.9,2.9-4.4,2.9-7.6s-0.9-5.7-2.9-7.6c-1.9-1.9-4.2-2.8-7.2-2.8  c-3,0-5.4,0.9-7.3,2.8c-1.9,1.9-2.8,4.4-2.8,7.6s0.9,5.7,2.8,7.6C195.7,52.8,198,53.7,201,53.7 M217.9,27.5c4,4.3,5.9,9.6,5.9,15.9  c0,6.3-2,11.6-5.9,16c-4,4.3-8.8,6.5-14.4,6.5c-5.4,0-9.7-1.7-12.7-5.2v20.9h-12.7V22.1h12.7v4c3-3.5,7.2-5.2,12.7-5.2  C209.2,20.9,213.9,23.1,217.9,27.5"/>
<rect x="226.8" y="22.1" class="st1" width="12.7" height="42.5"/>
<path class="st1" d="M280.9,25.6c3.1,3.1,4.6,7.4,4.6,12.9v26.1h-12.7V40.4c0-5-3.1-7.7-7.4-7.7c-4.8,0-7.9,3-7.9,8.8v23.2h-12.7  V22.1h12.7v4c2.6-3.5,6.6-5.2,12.2-5.2C274.1,20.9,277.9,22.4,280.9,25.6"/>
<path class="st1" d="M310.9,52.3c3,0,5.4-0.9,7.4-2.7c2-1.8,2.9-4.2,2.9-7.1c0-3-0.9-5.4-2.9-7.1c-2-1.8-4.4-2.7-7.4-2.7  c-3,0-5.4,0.9-7.4,2.7c-2,1.8-2.9,4.2-2.9,7.1c0,3,0.9,5.4,2.9,7.1C305.4,51.4,307.9,52.3,310.9,52.3 M321.2,22.1h12.4v39.1  c0,6.7-2.2,11.7-6.5,15.1c-4.3,3.5-9.7,5.2-15.9,5.2c-9.6,0-16.3-3.4-20.1-10.3l10.9-6.3c2,3.6,5.2,5.4,9.7,5.4c6,0,9.6-3.2,9.6-9.1  v-2.6c-3,3.7-7.1,5.5-12.4,5.5c-5.9,0-11-2.1-15-6.3c-4-4.2-5.9-9.3-5.9-15.3c0-5.9,2-11,5.9-15.2c4-4.2,9-6.4,15-6.4  c5.4,0,9.4,1.9,12.4,5.5V22.1z"/>
<path class="st1" d="M546.1,46l1.7,9l-6,1.1l-3.7-19.9l6-1.1l0.7,3.5c0.3-2.7,2.5-4.6,5.2-5.1l1.3,6.8c-1.5,0-2.8,0.5-4,1.5  C546.2,42.8,545.8,44.2,546.1,46 M535.5,57.3l-6,1.1l-2.7-14.2l-2.7,0.5l-1.1-5.7l2.7-0.5c-1.1-5.7,1.6-9.5,8.1-10.3l1.1,5.7  c-2.5,0.3-3.6,1.4-3.2,3.5l3.7-0.7l1.1,5.7l-3.7,0.7L535.5,57.3z M513.3,52.9c-2.8,0.5-5.5-1.3-6-4.1c-0.5-2.8,1.3-5.5,4.1-6  c2.8-0.5,5.5,1.3,6,4.1C517.9,49.7,516.1,52.4,513.3,52.9 M568.4,53.1l-5.7-30c-0.6-2.9-3.3-4.8-6.2-4.3l-45.6,8.5  c-1.7,0.3-3.2,1.4-4.1,2.9l-12.3,21.2l18.8,15.2c1.4,1.1,3.2,1.6,4.9,1.2l45.9-8.5C567,58.8,568.9,56,568.4,53.1"/>
</svg>