<?xml version="1.0" encoding="UTF-8"?>
<svg xmlns="http://www.w3.org/2000/svg" xmlns:xlink="http://www.w3.org/1999/xlink" width="25px" height="14px" viewBox="0 0 25 14">
  <!-- Generator: Sketch 64 (93537) - https://sketch.com -->
  <title>PICTO</title>
  <desc>Created with Sketch.</desc>
  <g id="Desktop" stroke="none" stroke-width="1" fill="none" fill-rule="evenodd">
    <g id="HOME-(FILTRE-OUVERT)" transform="translate(-818.000000, -32.000000)" stroke="#00CCA4">
      <g id="NAVBAR">
        <g id="NOS-VOITURES" transform="translate(819.000000, 29.000000)">
          <g id="PICTO" transform="translate(0.000000, 4.000000)">
            <line x1="9.01485169" y1="9.62751011" x2="14.3762899" y2="9.62751011" id="Stroke-1"/>
            <g id="Group-8" transform="translate(0.000000, 0.064652)">
              <path d="M19.0919258,9.54656629 L23.0239483,9.54656629 L23.0239483,4.79153258 L19.3741955,4.79153258 L16.1471393,0.0364988764 L7.65545393,0.0364988764 L5.15102697,3.61398202 L0.696262921,5.02249888 C0.301813483,5.14715056 0.0337011236,5.51315056 0.0337011236,5.92681348 L0.0337011236,9.54656629 L4.30913933,9.54656629" id="Stroke-2"/>
              <path d="M8.98897753,9.54656629 C8.98897753,10.8457348 7.93580899,11.8989034 6.63664045,11.8989034 C5.33753933,11.8989034 4.28437079,10.8457348 4.28437079,9.54656629 C4.28437079,8.24739775 5.33753933,7.19422921 6.63664045,7.19422921 C7.93580899,7.19422921 8.98897753,8.24739775 8.98897753,9.54656629 Z" id="Stroke-4"/>
              <path d="M19.0809303,9.54656629 C19.0809303,10.8457348 18.0277618,11.8989034 16.7285933,11.8989034 C15.4294921,11.8989034 14.3763236,10.8457348 14.3763236,9.54656629 C14.3763236,8.24739775 15.4294921,7.19422921 16.7285933,7.19422921 C18.0277618,7.19422921 19.0809303,8.24739775 19.0809303,9.54656629 Z" id="Stroke-6"/>
            </g>
          </g>
        </g>
      </g>
    </g>
  </g>
</svg>